<svg xmlns="http://www.w3.org/2000/svg" xmlns:xlink="http://www.w3.org/1999/xlink" width="1920" zoomAndPan="magnify" viewBox="0 0 1440 809.999993" height="1080" preserveAspectRatio="xMidYMid meet" version="1.0"><defs><g/><clipPath id="a332780e24"><path d="M 1075.859375 0 L 1440 0 L 1440 810 L 1075.859375 810 Z M 1075.859375 0 " clip-rule="nonzero"/></clipPath></defs><rect x="-144" width="1728" fill="#ffffff" y="-80.999999" height="971.999992" fill-opacity="1"/><rect x="-144" width="1728" fill="#ffffff" y="-80.999999" height="971.999992" fill-opacity="1"/><rect x="-144" width="1728" fill="#f8f8f8" y="-80.999999" height="971.999992" fill-opacity="1"/><g clip-path="url(#a332780e24)"><path fill="#000000" d="M 1075.859375 -66.390625 L 2451.046875 -66.390625 L 2451.046875 875.519531 L 1075.859375 875.519531 Z M 1075.859375 -66.390625 " fill-opacity="1" fill-rule="nonzero"/></g><g fill="#000000" fill-opacity="1"><g transform="translate(111.244709, 282.278838)"><g><path d="M 76.84375 0 L 66.703125 -29.875 L 25.8125 -29.875 L 15.65625 0 L 3.328125 0 L 38.71875 -101.203125 L 54.234375 -101.203125 L 89.609375 0 Z M 46.546875 -89.90625 L 45.8125 -89.90625 L 28.703125 -40.59375 L 63.65625 -40.59375 Z M 46.546875 -89.90625 "/></g></g></g><g fill="#000000" fill-opacity="1"><g transform="translate(204.18721, 282.278838)"><g><path d="M 18.125 -92.359375 C 15.613281 -92.359375 13.800781 -92.960938 12.6875 -94.171875 C 11.570312 -95.378906 11.015625 -96.953125 11.015625 -98.890625 L 11.015625 -100.78125 C 11.015625 -102.707031 11.570312 -104.273438 12.6875 -105.484375 C 13.800781 -106.691406 15.613281 -107.296875 18.125 -107.296875 C 20.632812 -107.296875 22.445312 -106.691406 23.5625 -105.484375 C 24.675781 -104.273438 25.234375 -102.707031 25.234375 -100.78125 L 25.234375 -98.890625 C 25.234375 -96.953125 24.675781 -95.378906 23.5625 -94.171875 C 22.445312 -92.960938 20.632812 -92.359375 18.125 -92.359375 Z M 12.328125 -74.8125 L 23.921875 -74.8125 L 23.921875 0 L 12.328125 0 Z M 12.328125 -74.8125 "/></g></g></g><g fill="#000000" fill-opacity="1"><g transform="translate(240.436231, 282.278838)"><g><path d="M 12.328125 0 L 12.328125 -74.8125 L 23.921875 -74.8125 L 23.921875 -61.046875 L 24.65625 -61.046875 C 26.007812 -64.617188 28.425781 -67.804688 31.90625 -70.609375 C 35.382812 -73.410156 40.164062 -74.8125 46.25 -74.8125 L 50.75 -74.8125 L 50.75 -63.21875 L 43.9375 -63.21875 C 37.65625 -63.21875 32.75 -62.03125 29.21875 -59.65625 C 25.6875 -57.289062 23.921875 -54.320312 23.921875 -50.75 L 23.921875 0 Z M 12.328125 0 "/></g></g></g><g fill="#000000" fill-opacity="1"><g transform="translate(293.649802, 282.278838)"><g><path d="M 24.65625 0 C 20.59375 0 17.519531 -1.132812 15.4375 -3.40625 C 13.363281 -5.675781 12.328125 -8.550781 12.328125 -12.03125 L 12.328125 -107.296875 L 23.921875 -107.296875 L 23.921875 -10.15625 L 34.9375 -10.15625 L 34.9375 0 Z M 24.65625 0 "/></g></g></g><g fill="#000000" fill-opacity="1"><g transform="translate(333.088738, 282.278838)"><g><path d="M 18.125 -92.359375 C 15.613281 -92.359375 13.800781 -92.960938 12.6875 -94.171875 C 11.570312 -95.378906 11.015625 -96.953125 11.015625 -98.890625 L 11.015625 -100.78125 C 11.015625 -102.707031 11.570312 -104.273438 12.6875 -105.484375 C 13.800781 -106.691406 15.613281 -107.296875 18.125 -107.296875 C 20.632812 -107.296875 22.445312 -106.691406 23.5625 -105.484375 C 24.675781 -104.273438 25.234375 -102.707031 25.234375 -100.78125 L 25.234375 -98.890625 C 25.234375 -96.953125 24.675781 -95.378906 23.5625 -94.171875 C 22.445312 -92.960938 20.632812 -92.359375 18.125 -92.359375 Z M 12.328125 -74.8125 L 23.921875 -74.8125 L 23.921875 0 L 12.328125 0 Z M 12.328125 -74.8125 "/></g></g></g><g fill="#000000" fill-opacity="1"><g transform="translate(369.337759, 282.278838)"><g><path d="M 12.328125 0 L 12.328125 -74.8125 L 23.921875 -74.8125 L 23.921875 -62.640625 L 24.5 -62.640625 C 26.34375 -66.890625 28.929688 -70.269531 32.265625 -72.78125 C 35.597656 -75.300781 40.066406 -76.5625 45.671875 -76.5625 C 53.410156 -76.5625 59.523438 -74.070312 64.015625 -69.09375 C 68.515625 -64.113281 70.765625 -57.082031 70.765625 -48 L 70.765625 0 L 59.15625 0 L 59.15625 -45.96875 C 59.15625 -59.40625 53.5 -66.125 42.1875 -66.125 C 39.875 -66.125 37.628906 -65.832031 35.453125 -65.25 C 33.273438 -64.664062 31.316406 -63.796875 29.578125 -62.640625 C 27.835938 -61.484375 26.457031 -60.007812 25.4375 -58.21875 C 24.425781 -56.425781 23.921875 -54.320312 23.921875 -51.90625 L 23.921875 0 Z M 12.328125 0 "/></g></g></g><g fill="#000000" fill-opacity="1"><g transform="translate(451.695528, 282.278838)"><g><path d="M 40.453125 1.734375 C 35.328125 1.734375 30.707031 0.816406 26.59375 -1.015625 C 22.488281 -2.847656 18.960938 -5.476562 16.015625 -8.90625 C 13.066406 -12.34375 10.796875 -16.453125 9.203125 -21.234375 C 7.609375 -26.023438 6.8125 -31.414062 6.8125 -37.40625 C 6.8125 -43.300781 7.609375 -48.664062 9.203125 -53.5 C 10.796875 -58.332031 13.066406 -62.460938 16.015625 -65.890625 C 18.960938 -69.328125 22.488281 -71.960938 26.59375 -73.796875 C 30.707031 -75.640625 35.328125 -76.5625 40.453125 -76.5625 C 45.484375 -76.5625 49.976562 -75.640625 53.9375 -73.796875 C 57.90625 -71.960938 61.289062 -69.425781 64.09375 -66.1875 C 66.894531 -62.945312 69.046875 -59.101562 70.546875 -54.65625 C 72.046875 -50.21875 72.796875 -45.335938 72.796875 -40.015625 L 72.796875 -34.515625 L 19 -34.515625 L 19 -31.03125 C 19 -27.84375 19.503906 -24.867188 20.515625 -22.109375 C 21.535156 -19.359375 22.984375 -16.96875 24.859375 -14.9375 C 26.742188 -12.90625 29.0625 -11.304688 31.8125 -10.140625 C 34.570312 -8.984375 37.695312 -8.40625 41.1875 -8.40625 C 45.914062 -8.40625 50.046875 -9.515625 53.578125 -11.734375 C 57.109375 -13.960938 59.835938 -17.15625 61.765625 -21.3125 L 70.03125 -15.375 C 67.613281 -10.25 63.84375 -6.113281 58.71875 -2.96875 C 53.601562 0.164062 47.515625 1.734375 40.453125 1.734375 Z M 40.453125 -66.84375 C 37.265625 -66.84375 34.363281 -66.285156 31.75 -65.171875 C 29.144531 -64.066406 26.898438 -62.5 25.015625 -60.46875 C 23.128906 -58.4375 21.65625 -56.039062 20.59375 -53.28125 C 19.53125 -50.53125 19 -47.507812 19 -44.21875 L 19 -43.203125 L 60.3125 -43.203125 L 60.3125 -44.8125 C 60.3125 -51.476562 58.5 -56.816406 54.875 -60.828125 C 51.25 -64.835938 46.441406 -66.84375 40.453125 -66.84375 Z M 40.453125 -66.84375 "/></g></g></g><g fill="#000000" fill-opacity="1"><g transform="translate(111.244709, 441.27883)"><g><path d="M 12.328125 0 L 12.328125 -74.8125 L 23.921875 -74.8125 L 23.921875 -61.046875 L 24.65625 -61.046875 C 26.007812 -64.617188 28.425781 -67.804688 31.90625 -70.609375 C 35.382812 -73.410156 40.164062 -74.8125 46.25 -74.8125 L 50.75 -74.8125 L 50.75 -63.21875 L 43.9375 -63.21875 C 37.65625 -63.21875 32.75 -62.03125 29.21875 -59.65625 C 25.6875 -57.289062 23.921875 -54.320312 23.921875 -50.75 L 23.921875 0 Z M 12.328125 0 "/></g></g></g><g fill="#000000" fill-opacity="1"><g transform="translate(164.45828, 441.27883)"><g><path d="M 40.453125 1.734375 C 35.328125 1.734375 30.707031 0.816406 26.59375 -1.015625 C 22.488281 -2.847656 18.960938 -5.476562 16.015625 -8.90625 C 13.066406 -12.34375 10.796875 -16.453125 9.203125 -21.234375 C 7.609375 -26.023438 6.8125 -31.414062 6.8125 -37.40625 C 6.8125 -43.300781 7.609375 -48.664062 9.203125 -53.5 C 10.796875 -58.332031 13.066406 -62.460938 16.015625 -65.890625 C 18.960938 -69.328125 22.488281 -71.960938 26.59375 -73.796875 C 30.707031 -75.640625 35.328125 -76.5625 40.453125 -76.5625 C 45.484375 -76.5625 49.976562 -75.640625 53.9375 -73.796875 C 57.90625 -71.960938 61.289062 -69.425781 64.09375 -66.1875 C 66.894531 -62.945312 69.046875 -59.101562 70.546875 -54.65625 C 72.046875 -50.21875 72.796875 -45.335938 72.796875 -40.015625 L 72.796875 -34.515625 L 19 -34.515625 L 19 -31.03125 C 19 -27.84375 19.503906 -24.867188 20.515625 -22.109375 C 21.535156 -19.359375 22.984375 -16.96875 24.859375 -14.9375 C 26.742188 -12.90625 29.0625 -11.304688 31.8125 -10.140625 C 34.570312 -8.984375 37.695312 -8.40625 41.1875 -8.40625 C 45.914062 -8.40625 50.046875 -9.515625 53.578125 -11.734375 C 57.109375 -13.960938 59.835938 -17.15625 61.765625 -21.3125 L 70.03125 -15.375 C 67.613281 -10.25 63.84375 -6.113281 58.71875 -2.96875 C 53.601562 0.164062 47.515625 1.734375 40.453125 1.734375 Z M 40.453125 -66.84375 C 37.265625 -66.84375 34.363281 -66.285156 31.75 -65.171875 C 29.144531 -64.066406 26.898438 -62.5 25.015625 -60.46875 C 23.128906 -58.4375 21.65625 -56.039062 20.59375 -53.28125 C 19.53125 -50.53125 19 -47.507812 19 -44.21875 L 19 -43.203125 L 60.3125 -43.203125 L 60.3125 -44.8125 C 60.3125 -51.476562 58.5 -56.816406 54.875 -60.828125 C 51.25 -64.835938 46.441406 -66.84375 40.453125 -66.84375 Z M 40.453125 -66.84375 "/></g></g></g><g fill="#000000" fill-opacity="1"><g transform="translate(244.061135, 441.27883)"><g><path d="M 34.796875 1.734375 C 27.835938 1.734375 22.015625 0.40625 17.328125 -2.25 C 12.640625 -4.90625 8.601562 -8.457031 5.21875 -12.90625 L 13.484375 -19.578125 C 16.378906 -15.898438 19.613281 -13.070312 23.1875 -11.09375 C 26.769531 -9.113281 30.929688 -8.125 35.671875 -8.125 C 40.597656 -8.125 44.4375 -9.1875 47.1875 -11.3125 C 49.945312 -13.4375 51.328125 -16.429688 51.328125 -20.296875 C 51.328125 -23.203125 50.382812 -25.691406 48.5 -27.765625 C 46.613281 -29.847656 43.207031 -31.273438 38.28125 -32.046875 L 32.328125 -32.921875 C 28.847656 -33.398438 25.660156 -34.144531 22.765625 -35.15625 C 19.867188 -36.175781 17.332031 -37.53125 15.15625 -39.21875 C 12.976562 -40.914062 11.285156 -43.019531 10.078125 -45.53125 C 8.867188 -48.039062 8.265625 -51.035156 8.265625 -54.515625 C 8.265625 -58.191406 8.941406 -61.40625 10.296875 -64.15625 C 11.648438 -66.914062 13.507812 -69.210938 15.875 -71.046875 C 18.25 -72.890625 21.078125 -74.269531 24.359375 -75.1875 C 27.648438 -76.101562 31.175781 -76.5625 34.9375 -76.5625 C 41.03125 -76.5625 46.128906 -75.5 50.234375 -73.375 C 54.347656 -71.25 57.953125 -68.300781 61.046875 -64.53125 L 53.359375 -57.5625 C 51.710938 -59.882812 49.296875 -61.988281 46.109375 -63.875 C 42.921875 -65.757812 38.910156 -66.703125 34.078125 -66.703125 C 29.242188 -66.703125 25.59375 -65.660156 23.125 -63.578125 C 20.664062 -61.503906 19.4375 -58.675781 19.4375 -55.09375 C 19.4375 -51.425781 20.664062 -48.769531 23.125 -47.125 C 25.59375 -45.476562 29.144531 -44.269531 33.78125 -43.5 L 39.578125 -42.625 C 47.898438 -41.375 53.800781 -38.984375 57.28125 -35.453125 C 60.757812 -31.921875 62.5 -27.304688 62.5 -21.609375 C 62.5 -14.359375 60.03125 -8.65625 55.09375 -4.5 C 50.164062 -0.34375 43.398438 1.734375 34.796875 1.734375 Z M 34.796875 1.734375 "/></g></g></g><g fill="#000000" fill-opacity="1"><g transform="translate(314.674234, 441.27883)"><g><path d="M 40.453125 1.734375 C 35.328125 1.734375 30.707031 0.816406 26.59375 -1.015625 C 22.488281 -2.847656 18.960938 -5.476562 16.015625 -8.90625 C 13.066406 -12.34375 10.796875 -16.453125 9.203125 -21.234375 C 7.609375 -26.023438 6.8125 -31.414062 6.8125 -37.40625 C 6.8125 -43.300781 7.609375 -48.664062 9.203125 -53.5 C 10.796875 -58.332031 13.066406 -62.460938 16.015625 -65.890625 C 18.960938 -69.328125 22.488281 -71.960938 26.59375 -73.796875 C 30.707031 -75.640625 35.328125 -76.5625 40.453125 -76.5625 C 45.484375 -76.5625 49.976562 -75.640625 53.9375 -73.796875 C 57.90625 -71.960938 61.289062 -69.425781 64.09375 -66.1875 C 66.894531 -62.945312 69.046875 -59.101562 70.546875 -54.65625 C 72.046875 -50.21875 72.796875 -45.335938 72.796875 -40.015625 L 72.796875 -34.515625 L 19 -34.515625 L 19 -31.03125 C 19 -27.84375 19.503906 -24.867188 20.515625 -22.109375 C 21.535156 -19.359375 22.984375 -16.96875 24.859375 -14.9375 C 26.742188 -12.90625 29.0625 -11.304688 31.8125 -10.140625 C 34.570312 -8.984375 37.695312 -8.40625 41.1875 -8.40625 C 45.914062 -8.40625 50.046875 -9.515625 53.578125 -11.734375 C 57.109375 -13.960938 59.835938 -17.15625 61.765625 -21.3125 L 70.03125 -15.375 C 67.613281 -10.25 63.84375 -6.113281 58.71875 -2.96875 C 53.601562 0.164062 47.515625 1.734375 40.453125 1.734375 Z M 40.453125 -66.84375 C 37.265625 -66.84375 34.363281 -66.285156 31.75 -65.171875 C 29.144531 -64.066406 26.898438 -62.5 25.015625 -60.46875 C 23.128906 -58.4375 21.65625 -56.039062 20.59375 -53.28125 C 19.53125 -50.53125 19 -47.507812 19 -44.21875 L 19 -43.203125 L 60.3125 -43.203125 L 60.3125 -44.8125 C 60.3125 -51.476562 58.5 -56.816406 54.875 -60.828125 C 51.25 -64.835938 46.441406 -66.84375 40.453125 -66.84375 Z M 40.453125 -66.84375 "/></g></g></g><g fill="#000000" fill-opacity="1"><g transform="translate(394.27709, 441.27883)"><g><path d="M 12.328125 0 L 12.328125 -74.8125 L 23.921875 -74.8125 L 23.921875 -61.046875 L 24.65625 -61.046875 C 26.007812 -64.617188 28.425781 -67.804688 31.90625 -70.609375 C 35.382812 -73.410156 40.164062 -74.8125 46.25 -74.8125 L 50.75 -74.8125 L 50.75 -63.21875 L 43.9375 -63.21875 C 37.65625 -63.21875 32.75 -62.03125 29.21875 -59.65625 C 25.6875 -57.289062 23.921875 -54.320312 23.921875 -50.75 L 23.921875 0 Z M 12.328125 0 "/></g></g></g><g fill="#000000" fill-opacity="1"><g transform="translate(447.490649, 441.27883)"><g><path d="M 28.859375 0 L 2.609375 -74.8125 L 14.203125 -74.8125 L 27.265625 -37.703125 L 35.375 -12.1875 L 36.109375 -12.1875 L 44.21875 -37.703125 L 57.5625 -74.8125 L 68.734375 -74.8125 L 42.34375 0 Z M 28.859375 0 "/></g></g></g><g fill="#000000" fill-opacity="1"><g transform="translate(518.828719, 441.27883)"><g><path d="M 66.703125 0 C 62.347656 0 59.226562 -1.15625 57.34375 -3.46875 C 55.457031 -5.789062 54.273438 -8.695312 53.796875 -12.1875 L 53.0625 -12.1875 C 51.425781 -7.539062 48.722656 -4.054688 44.953125 -1.734375 C 41.179688 0.578125 36.6875 1.734375 31.46875 1.734375 C 23.539062 1.734375 17.375 -0.289062 12.96875 -4.34375 C 8.570312 -8.40625 6.375 -13.914062 6.375 -20.875 C 6.375 -27.9375 8.957031 -33.351562 14.125 -37.125 C 19.300781 -40.894531 27.351562 -42.78125 38.28125 -42.78125 L 53.0625 -42.78125 L 53.0625 -50.171875 C 53.0625 -55.484375 51.613281 -59.539062 48.71875 -62.34375 C 45.820312 -65.15625 41.375 -66.5625 35.375 -66.5625 C 30.832031 -66.5625 27.039062 -65.546875 24 -63.515625 C 20.957031 -61.484375 18.421875 -58.773438 16.390625 -55.390625 L 9.421875 -61.921875 C 11.453125 -65.972656 14.691406 -69.425781 19.140625 -72.28125 C 23.585938 -75.132812 29.191406 -76.5625 35.953125 -76.5625 C 45.046875 -76.5625 52.101562 -74.335938 57.125 -69.890625 C 62.15625 -65.441406 64.671875 -59.253906 64.671875 -51.328125 L 64.671875 -10.15625 L 73.21875 -10.15625 L 73.21875 0 Z M 33.34375 -8.125 C 36.25 -8.125 38.910156 -8.460938 41.328125 -9.140625 C 43.742188 -9.816406 45.820312 -10.78125 47.5625 -12.03125 C 49.300781 -13.289062 50.648438 -14.738281 51.609375 -16.375 C 52.578125 -18.019531 53.0625 -19.8125 53.0625 -21.75 L 53.0625 -34.078125 L 37.703125 -34.078125 C 31.023438 -34.078125 26.164062 -33.109375 23.125 -31.171875 C 20.082031 -29.242188 18.5625 -26.441406 18.5625 -22.765625 L 18.5625 -19.71875 C 18.5625 -16.039062 19.890625 -13.1875 22.546875 -11.15625 C 25.203125 -9.132812 28.800781 -8.125 33.34375 -8.125 Z M 33.34375 -8.125 "/></g></g></g><g fill="#000000" fill-opacity="1"><g transform="translate(596.256649, 441.27883)"><g><path d="M 28.859375 0 C 24.796875 0 21.722656 -1.132812 19.640625 -3.40625 C 17.566406 -5.675781 16.53125 -8.648438 16.53125 -12.328125 L 16.53125 -64.671875 L 4.203125 -64.671875 L 4.203125 -74.8125 L 11.171875 -74.8125 C 13.679688 -74.8125 15.394531 -75.316406 16.3125 -76.328125 C 17.226562 -77.347656 17.6875 -79.117188 17.6875 -81.640625 L 17.6875 -95.5625 L 28.125 -95.5625 L 28.125 -74.8125 L 44.515625 -74.8125 L 44.515625 -64.671875 L 28.125 -64.671875 L 28.125 -10.15625 L 43.359375 -10.15625 L 43.359375 0 Z M 28.859375 0 "/></g></g></g><g fill="#000000" fill-opacity="1"><g transform="translate(647.150261, 441.27883)"><g><path d="M 18.125 -92.359375 C 15.613281 -92.359375 13.800781 -92.960938 12.6875 -94.171875 C 11.570312 -95.378906 11.015625 -96.953125 11.015625 -98.890625 L 11.015625 -100.78125 C 11.015625 -102.707031 11.570312 -104.273438 12.6875 -105.484375 C 13.800781 -106.691406 15.613281 -107.296875 18.125 -107.296875 C 20.632812 -107.296875 22.445312 -106.691406 23.5625 -105.484375 C 24.675781 -104.273438 25.234375 -102.707031 25.234375 -100.78125 L 25.234375 -98.890625 C 25.234375 -96.953125 24.675781 -95.378906 23.5625 -94.171875 C 22.445312 -92.960938 20.632812 -92.359375 18.125 -92.359375 Z M 12.328125 -74.8125 L 23.921875 -74.8125 L 23.921875 0 L 12.328125 0 Z M 12.328125 -74.8125 "/></g></g></g><g fill="#000000" fill-opacity="1"><g transform="translate(683.399283, 441.27883)"><g><path d="M 40.59375 1.734375 C 35.570312 1.734375 30.984375 0.816406 26.828125 -1.015625 C 22.671875 -2.847656 19.117188 -5.476562 16.171875 -8.90625 C 13.222656 -12.34375 10.925781 -16.453125 9.28125 -21.234375 C 7.632812 -26.023438 6.8125 -31.414062 6.8125 -37.40625 C 6.8125 -43.300781 7.632812 -48.664062 9.28125 -53.5 C 10.925781 -58.332031 13.222656 -62.460938 16.171875 -65.890625 C 19.117188 -69.328125 22.671875 -71.960938 26.828125 -73.796875 C 30.984375 -75.640625 35.570312 -76.5625 40.59375 -76.5625 C 45.625 -76.5625 50.191406 -75.640625 54.296875 -73.796875 C 58.410156 -71.960938 61.960938 -69.328125 64.953125 -65.890625 C 67.953125 -62.460938 70.273438 -58.332031 71.921875 -53.5 C 73.566406 -48.664062 74.390625 -43.300781 74.390625 -37.40625 C 74.390625 -31.414062 73.566406 -26.023438 71.921875 -21.234375 C 70.273438 -16.453125 67.953125 -12.34375 64.953125 -8.90625 C 61.960938 -5.476562 58.410156 -2.847656 54.296875 -1.015625 C 50.191406 0.816406 45.625 1.734375 40.59375 1.734375 Z M 40.59375 -8.5625 C 46.882812 -8.5625 52.007812 -10.492188 55.96875 -14.359375 C 59.9375 -18.222656 61.921875 -24.117188 61.921875 -32.046875 L 61.921875 -42.78125 C 61.921875 -50.707031 59.9375 -56.601562 55.96875 -60.46875 C 52.007812 -64.332031 46.882812 -66.265625 40.59375 -66.265625 C 34.3125 -66.265625 29.1875 -64.332031 25.21875 -60.46875 C 21.257812 -56.601562 19.28125 -50.707031 19.28125 -42.78125 L 19.28125 -32.046875 C 19.28125 -24.117188 21.257812 -18.222656 25.21875 -14.359375 C 29.1875 -10.492188 34.3125 -8.5625 40.59375 -8.5625 Z M 40.59375 -8.5625 "/></g></g></g><g fill="#000000" fill-opacity="1"><g transform="translate(764.597124, 441.27883)"><g><path d="M 12.328125 0 L 12.328125 -74.8125 L 23.921875 -74.8125 L 23.921875 -62.640625 L 24.5 -62.640625 C 26.34375 -66.890625 28.929688 -70.269531 32.265625 -72.78125 C 35.597656 -75.300781 40.066406 -76.5625 45.671875 -76.5625 C 53.410156 -76.5625 59.523438 -74.070312 64.015625 -69.09375 C 68.515625 -64.113281 70.765625 -57.082031 70.765625 -48 L 70.765625 0 L 59.15625 0 L 59.15625 -45.96875 C 59.15625 -59.40625 53.5 -66.125 42.1875 -66.125 C 39.875 -66.125 37.628906 -65.832031 35.453125 -65.25 C 33.273438 -64.664062 31.316406 -63.796875 29.578125 -62.640625 C 27.835938 -61.484375 26.457031 -60.007812 25.4375 -58.21875 C 24.425781 -56.425781 23.921875 -54.320312 23.921875 -51.90625 L 23.921875 0 Z M 12.328125 0 "/></g></g></g><g fill="#000000" fill-opacity="1"><g transform="translate(846.947797, 441.27883)"><g/></g></g><g fill="#000000" fill-opacity="1"><g transform="translate(111.244709, 600.278822)"><g><path d="M 34.796875 1.734375 C 27.835938 1.734375 22.015625 0.40625 17.328125 -2.25 C 12.640625 -4.90625 8.601562 -8.457031 5.21875 -12.90625 L 13.484375 -19.578125 C 16.378906 -15.898438 19.613281 -13.070312 23.1875 -11.09375 C 26.769531 -9.113281 30.929688 -8.125 35.671875 -8.125 C 40.597656 -8.125 44.4375 -9.1875 47.1875 -11.3125 C 49.945312 -13.4375 51.328125 -16.429688 51.328125 -20.296875 C 51.328125 -23.203125 50.382812 -25.691406 48.5 -27.765625 C 46.613281 -29.847656 43.207031 -31.273438 38.28125 -32.046875 L 32.328125 -32.921875 C 28.847656 -33.398438 25.660156 -34.144531 22.765625 -35.15625 C 19.867188 -36.175781 17.332031 -37.53125 15.15625 -39.21875 C 12.976562 -40.914062 11.285156 -43.019531 10.078125 -45.53125 C 8.867188 -48.039062 8.265625 -51.035156 8.265625 -54.515625 C 8.265625 -58.191406 8.941406 -61.40625 10.296875 -64.15625 C 11.648438 -66.914062 13.507812 -69.210938 15.875 -71.046875 C 18.25 -72.890625 21.078125 -74.269531 24.359375 -75.1875 C 27.648438 -76.101562 31.175781 -76.5625 34.9375 -76.5625 C 41.03125 -76.5625 46.128906 -75.5 50.234375 -73.375 C 54.347656 -71.25 57.953125 -68.300781 61.046875 -64.53125 L 53.359375 -57.5625 C 51.710938 -59.882812 49.296875 -61.988281 46.109375 -63.875 C 42.921875 -65.757812 38.910156 -66.703125 34.078125 -66.703125 C 29.242188 -66.703125 25.59375 -65.660156 23.125 -63.578125 C 20.664062 -61.503906 19.4375 -58.675781 19.4375 -55.09375 C 19.4375 -51.425781 20.664062 -48.769531 23.125 -47.125 C 25.59375 -45.476562 29.144531 -44.269531 33.78125 -43.5 L 39.578125 -42.625 C 47.898438 -41.375 53.800781 -38.984375 57.28125 -35.453125 C 60.757812 -31.921875 62.5 -27.304688 62.5 -21.609375 C 62.5 -14.359375 60.03125 -8.65625 55.09375 -4.5 C 50.164062 -0.34375 43.398438 1.734375 34.796875 1.734375 Z M 34.796875 1.734375 "/></g></g></g><g fill="#000000" fill-opacity="1"><g transform="translate(181.857808, 600.278822)"><g><path d="M 58.4375 -74.8125 L 69.890625 -74.8125 L 36.390625 17.40625 C 35.523438 19.625 34.65625 21.484375 33.78125 22.984375 C 32.914062 24.484375 31.851562 25.664062 30.59375 26.53125 C 29.332031 27.40625 27.757812 28.035156 25.875 28.421875 C 24 28.804688 21.707031 29 19 29 L 13.046875 29 L 13.046875 18.84375 L 24.796875 18.84375 L 30.453125 2.90625 L 2.46875 -74.8125 L 14.0625 -74.8125 L 32.046875 -23.921875 L 35.53125 -11.75 L 36.25 -11.75 L 40.3125 -23.921875 Z M 58.4375 -74.8125 "/></g></g></g><g fill="#000000" fill-opacity="1"><g transform="translate(254.210866, 600.278822)"><g><path d="M 34.796875 1.734375 C 27.835938 1.734375 22.015625 0.40625 17.328125 -2.25 C 12.640625 -4.90625 8.601562 -8.457031 5.21875 -12.90625 L 13.484375 -19.578125 C 16.378906 -15.898438 19.613281 -13.070312 23.1875 -11.09375 C 26.769531 -9.113281 30.929688 -8.125 35.671875 -8.125 C 40.597656 -8.125 44.4375 -9.1875 47.1875 -11.3125 C 49.945312 -13.4375 51.328125 -16.429688 51.328125 -20.296875 C 51.328125 -23.203125 50.382812 -25.691406 48.5 -27.765625 C 46.613281 -29.847656 43.207031 -31.273438 38.28125 -32.046875 L 32.328125 -32.921875 C 28.847656 -33.398438 25.660156 -34.144531 22.765625 -35.15625 C 19.867188 -36.175781 17.332031 -37.53125 15.15625 -39.21875 C 12.976562 -40.914062 11.285156 -43.019531 10.078125 -45.53125 C 8.867188 -48.039062 8.265625 -51.035156 8.265625 -54.515625 C 8.265625 -58.191406 8.941406 -61.40625 10.296875 -64.15625 C 11.648438 -66.914062 13.507812 -69.210938 15.875 -71.046875 C 18.25 -72.890625 21.078125 -74.269531 24.359375 -75.1875 C 27.648438 -76.101562 31.175781 -76.5625 34.9375 -76.5625 C 41.03125 -76.5625 46.128906 -75.5 50.234375 -73.375 C 54.347656 -71.25 57.953125 -68.300781 61.046875 -64.53125 L 53.359375 -57.5625 C 51.710938 -59.882812 49.296875 -61.988281 46.109375 -63.875 C 42.921875 -65.757812 38.910156 -66.703125 34.078125 -66.703125 C 29.242188 -66.703125 25.59375 -65.660156 23.125 -63.578125 C 20.664062 -61.503906 19.4375 -58.675781 19.4375 -55.09375 C 19.4375 -51.425781 20.664062 -48.769531 23.125 -47.125 C 25.59375 -45.476562 29.144531 -44.269531 33.78125 -43.5 L 39.578125 -42.625 C 47.898438 -41.375 53.800781 -38.984375 57.28125 -35.453125 C 60.757812 -31.921875 62.5 -27.304688 62.5 -21.609375 C 62.5 -14.359375 60.03125 -8.65625 55.09375 -4.5 C 50.164062 -0.34375 43.398438 1.734375 34.796875 1.734375 Z M 34.796875 1.734375 "/></g></g></g><g fill="#000000" fill-opacity="1"><g transform="translate(324.823953, 600.278822)"><g><path d="M 28.859375 0 C 24.796875 0 21.722656 -1.132812 19.640625 -3.40625 C 17.566406 -5.675781 16.53125 -8.648438 16.53125 -12.328125 L 16.53125 -64.671875 L 4.203125 -64.671875 L 4.203125 -74.8125 L 11.171875 -74.8125 C 13.679688 -74.8125 15.394531 -75.316406 16.3125 -76.328125 C 17.226562 -77.347656 17.6875 -79.117188 17.6875 -81.640625 L 17.6875 -95.5625 L 28.125 -95.5625 L 28.125 -74.8125 L 44.515625 -74.8125 L 44.515625 -64.671875 L 28.125 -64.671875 L 28.125 -10.15625 L 43.359375 -10.15625 L 43.359375 0 Z M 28.859375 0 "/></g></g></g><g fill="#000000" fill-opacity="1"><g transform="translate(375.717589, 600.278822)"><g><path d="M 40.453125 1.734375 C 35.328125 1.734375 30.707031 0.816406 26.59375 -1.015625 C 22.488281 -2.847656 18.960938 -5.476562 16.015625 -8.90625 C 13.066406 -12.34375 10.796875 -16.453125 9.203125 -21.234375 C 7.609375 -26.023438 6.8125 -31.414062 6.8125 -37.40625 C 6.8125 -43.300781 7.609375 -48.664062 9.203125 -53.5 C 10.796875 -58.332031 13.066406 -62.460938 16.015625 -65.890625 C 18.960938 -69.328125 22.488281 -71.960938 26.59375 -73.796875 C 30.707031 -75.640625 35.328125 -76.5625 40.453125 -76.5625 C 45.484375 -76.5625 49.976562 -75.640625 53.9375 -73.796875 C 57.90625 -71.960938 61.289062 -69.425781 64.09375 -66.1875 C 66.894531 -62.945312 69.046875 -59.101562 70.546875 -54.65625 C 72.046875 -50.21875 72.796875 -45.335938 72.796875 -40.015625 L 72.796875 -34.515625 L 19 -34.515625 L 19 -31.03125 C 19 -27.84375 19.503906 -24.867188 20.515625 -22.109375 C 21.535156 -19.359375 22.984375 -16.96875 24.859375 -14.9375 C 26.742188 -12.90625 29.0625 -11.304688 31.8125 -10.140625 C 34.570312 -8.984375 37.695312 -8.40625 41.1875 -8.40625 C 45.914062 -8.40625 50.046875 -9.515625 53.578125 -11.734375 C 57.109375 -13.960938 59.835938 -17.15625 61.765625 -21.3125 L 70.03125 -15.375 C 67.613281 -10.25 63.84375 -6.113281 58.71875 -2.96875 C 53.601562 0.164062 47.515625 1.734375 40.453125 1.734375 Z M 40.453125 -66.84375 C 37.265625 -66.84375 34.363281 -66.285156 31.75 -65.171875 C 29.144531 -64.066406 26.898438 -62.5 25.015625 -60.46875 C 23.128906 -58.4375 21.65625 -56.039062 20.59375 -53.28125 C 19.53125 -50.53125 19 -47.507812 19 -44.21875 L 19 -43.203125 L 60.3125 -43.203125 L 60.3125 -44.8125 C 60.3125 -51.476562 58.5 -56.816406 54.875 -60.828125 C 51.25 -64.835938 46.441406 -66.84375 40.453125 -66.84375 Z M 40.453125 -66.84375 "/></g></g></g><g fill="#000000" fill-opacity="1"><g transform="translate(455.320445, 600.278822)"><g><path d="M 12.328125 0 L 12.328125 -74.8125 L 23.921875 -74.8125 L 23.921875 -62.640625 L 24.5 -62.640625 C 25.375 -64.578125 26.363281 -66.390625 27.46875 -68.078125 C 28.582031 -69.765625 29.9375 -71.238281 31.53125 -72.5 C 33.132812 -73.757812 35 -74.75 37.125 -75.46875 C 39.25 -76.195312 41.757812 -76.5625 44.65625 -76.5625 C 49.59375 -76.5625 54.140625 -75.375 58.296875 -73 C 62.453125 -70.632812 65.539062 -66.742188 67.5625 -61.328125 L 67.859375 -61.328125 C 69.210938 -65.390625 71.75 -68.941406 75.46875 -71.984375 C 79.195312 -75.035156 84.25 -76.5625 90.625 -76.5625 C 98.257812 -76.5625 104.226562 -74.070312 108.53125 -69.09375 C 112.832031 -64.113281 114.984375 -57.082031 114.984375 -48 L 114.984375 0 L 103.390625 0 L 103.390625 -45.96875 C 103.390625 -52.632812 102.082031 -57.660156 99.46875 -61.046875 C 96.863281 -64.429688 92.707031 -66.125 87 -66.125 C 84.675781 -66.125 82.472656 -65.832031 80.390625 -65.25 C 78.316406 -64.664062 76.457031 -63.796875 74.8125 -62.640625 C 73.175781 -61.484375 71.875 -60.007812 70.90625 -58.21875 C 69.9375 -56.425781 69.453125 -54.320312 69.453125 -51.90625 L 69.453125 0 L 57.859375 0 L 57.859375 -45.96875 C 57.859375 -52.632812 56.550781 -57.660156 53.9375 -61.046875 C 51.332031 -64.429688 47.273438 -66.125 41.765625 -66.125 C 39.441406 -66.125 37.21875 -65.832031 35.09375 -65.25 C 32.96875 -64.664062 31.082031 -63.796875 29.4375 -62.640625 C 27.789062 -61.484375 26.457031 -60.007812 25.4375 -58.21875 C 24.425781 -56.425781 23.921875 -54.320312 23.921875 -51.90625 L 23.921875 0 Z M 12.328125 0 "/></g></g></g></svg>