<svg xmlns="http://www.w3.org/2000/svg" xmlns:xlink="http://www.w3.org/1999/xlink" width="1920" zoomAndPan="magnify" viewBox="0 0 1440 809.999993" height="1080" preserveAspectRatio="xMidYMid meet" version="1.0"><defs><g/></defs><rect x="-144" width="1728" fill="#ffffff" y="-80.999999" height="971.999992" fill-opacity="1"/><rect x="-144" width="1728" fill="#ffffff" y="-80.999999" height="971.999992" fill-opacity="1"/><rect x="-144" width="1728" fill="#ffffff" y="-80.999999" height="971.999992" fill-opacity="1"/><g fill="#000000" fill-opacity="1"><g transform="translate(214.733893, 450.923481)"><g><path d="M 78.046875 -148.5 L 78.046875 0 L 58.0625 0 L 58.0625 -148.5 L 5.234375 -148.5 L 5.234375 -166.109375 L 130.875 -166.109375 L 130.875 -148.5 Z M 78.046875 -148.5 "/></g></g></g><g fill="#000000" fill-opacity="1"><g transform="translate(350.832265, 450.923481)"><g><path d="M 126.125 -75.203125 L 42.125 -75.203125 L 42.125 0 L 22.125 0 L 22.125 -166.109375 L 42.125 -166.109375 L 42.125 -92.8125 L 126.125 -92.8125 L 126.125 -166.109375 L 146.109375 -166.109375 L 146.109375 0 L 126.125 0 Z M 126.125 -75.203125 "/></g></g></g><g fill="#000000" fill-opacity="1"><g transform="translate(519.051764, 450.923481)"><g><path d="M 22.125 0 L 22.125 -166.109375 L 123.5 -166.109375 L 123.5 -148.5 L 42.125 -148.5 L 42.125 -92.8125 L 118.75 -92.8125 L 118.75 -75.203125 L 42.125 -75.203125 L 42.125 -17.609375 L 123.5 -17.609375 L 123.5 0 Z M 22.125 0 "/></g></g></g><g fill="#000000" fill-opacity="1"><g transform="translate(657.767425, 450.923481)"><g/></g></g><g fill="#000000" fill-opacity="1"><g transform="translate(713.919908, 450.923481)"><g><path d="M 22.125 0 L 22.125 -166.109375 L 123.5 -166.109375 L 123.5 -148.5 L 42.125 -148.5 L 42.125 -92.8125 L 118.75 -92.8125 L 118.75 -75.203125 L 42.125 -75.203125 L 42.125 -17.609375 L 123.5 -17.609375 L 123.5 0 Z M 22.125 0 "/></g></g></g><g fill="#000000" fill-opacity="1"><g transform="translate(852.635569, 450.923481)"><g><path d="M 62.34375 -101.375 L 42.359375 -138.265625 L 41.640625 -138.265625 L 41.640625 0 L 22.125 0 L 22.125 -166.109375 L 45.21875 -166.109375 L 105.890625 -64.734375 L 125.890625 -27.84375 L 126.59375 -27.84375 L 126.59375 -166.109375 L 146.109375 -166.109375 L 146.109375 0 L 123.03125 0 Z M 62.34375 -101.375 "/></g></g></g><g fill="#000000" fill-opacity="1"><g transform="translate(1020.855068, 450.923481)"><g><path d="M 22.125 -166.109375 L 77.8125 -166.109375 C 88.125 -166.109375 97.484375 -164.359375 105.890625 -160.859375 C 114.304688 -157.367188 121.488281 -152.171875 127.4375 -145.265625 C 133.382812 -138.367188 137.941406 -129.722656 141.109375 -119.328125 C 144.285156 -108.941406 145.875 -96.847656 145.875 -83.046875 C 145.875 -69.242188 144.285156 -57.144531 141.109375 -46.75 C 137.941406 -36.363281 133.382812 -27.71875 127.4375 -20.8125 C 121.488281 -13.914062 114.304688 -8.722656 105.890625 -5.234375 C 97.484375 -1.742188 88.125 0 77.8125 0 L 22.125 0 Z M 77.8125 -17.609375 C 84.632812 -17.609375 90.898438 -18.757812 96.609375 -21.0625 C 102.328125 -23.363281 107.25 -26.734375 111.375 -31.171875 C 115.5 -35.617188 118.707031 -41.050781 121 -47.46875 C 123.300781 -53.894531 124.453125 -61.234375 124.453125 -69.484375 L 124.453125 -96.609375 C 124.453125 -104.859375 123.300781 -112.195312 121 -118.625 C 118.707031 -125.050781 115.5 -130.484375 111.375 -134.921875 C 107.25 -139.367188 102.328125 -142.742188 96.609375 -145.046875 C 90.898438 -147.347656 84.632812 -148.5 77.8125 -148.5 L 42.125 -148.5 L 42.125 -17.609375 Z M 77.8125 -17.609375 "/></g></g></g></svg>